<svg width="30.000000000000004" height="30.000000000000004" xmlns="http://www.w3.org/2000/svg" version="1.0" xml:space="preserve">

 <g>
  <title>Layer 1</title>
  <g>
   <g id="svg_1">
    <path fill="rgb(0%,32.156863%,100%)" fill-rule="nonzero" d="m256,300.16406c4.77344,0 8.64453,3.95703 8.64453,8.83594c0,4.8789 -3.87109,8.83593 -8.64453,8.83593c-4.77344,0 -8.64453,-3.95703 -8.64453,-8.83593c0,-4.87891 3.87109,-8.83594 8.64453,-8.83594zm0,0"/>
    <path fill="rgb(100%,100%,100%)" fill-rule="nonzero" d="m256.0039,312.10546c-1.67968,0 -3.03906,-1.39062 -3.03906,-3.10546c0,-1.71485 1.36328,-3.10547 3.03906,-3.10547c1.50391,0 2.75391,1.12109 2.99219,2.58984l3.0586,0c-0.25782,-3.19141 -2.86719,-5.69922 -6.05469,-5.69922c-3.35547,0 -6.07813,2.78516 -6.07813,6.21485c0,3.42968 2.72266,6.21484 6.07813,6.21484c3.1875,0 5.79687,-2.50781 6.05469,-5.69531l-3.0625,0c-0.23829,1.46484 -1.48438,2.58593 -2.98829,2.58593zm0,0"/>
   </g>
  </g>
  <g stroke="null">
   <g stroke="null" id="svg_2">
    <path stroke="null" fill="rgb(0%,32.156863%,100%)" fill-rule="nonzero" d="m15.05208,0.22662c8.00412,0 14.49517,6.63516 14.49517,14.81613c0,8.18095 -6.49105,14.81611 -14.49517,14.81611c-8.00412,0 -14.49517,-6.63516 -14.49517,-14.81611c0,-8.18097 6.49105,-14.81613 14.49517,-14.81613zm0,0"/>
    <path stroke="null" fill="rgb(100%,100%,100%)" fill-rule="nonzero" d="m15.05862,20.24999c-2.81649,0 -5.0959,-2.3318 -5.0959,-5.20724c0,-2.87547 2.28595,-5.20726 5.0959,-5.20726c2.52176,0 4.61776,1.87985 5.01731,4.34265l5.12867,0c-0.43231,-5.35137 -4.80771,-9.55647 -10.15252,-9.55647c-5.62646,0 -10.19183,4.67016 -10.19183,10.42108c0,5.7509 4.56536,10.42106 10.19183,10.42106c5.34481,0 9.72021,-4.2051 10.15252,-9.54991l-5.13521,0c-0.39957,2.45625 -2.48901,4.33609 -5.01077,4.33609zm0,0"/>
   </g>
  </g>
 </g>
</svg>