<?xml version="1.0" standalone="no"?>
<!DOCTYPE svg PUBLIC "-//W3C//DTD SVG 20010904//EN"
 "http://www.w3.org/TR/2001/REC-SVG-20010904/DTD/svg10.dtd">
<svg version="1.0" xmlns="http://www.w3.org/2000/svg"
 width="288.000000pt" height="288.000000pt" viewBox="0 0 288.000000 288.000000"
 preserveAspectRatio="xMidYMid meet">
<metadata>
Created by potrace 1.14, written by Peter Selinger 2001-2017
</metadata>
<g transform="translate(0.000000,288.000000) scale(0.100000,-0.100000)"
fill="#000000" stroke="none">
<path d="M1269 2745 c0 0 -2 -8 -4 -18 -5 -29 -8 -29 -100 -28 l-85 2 0 -27
c0 -18 -4 -25 -14 -21 -18 7 -36 -11 -29 -29 4 -10 -3 -14 -21 -14 -21 0 -26
-5 -26 -24 0 -19 -4 -24 -20 -21 -15 3 -20 -2 -20 -17 0 -11 -8 -22 -19 -25
-11 -3 -21 -14 -23 -24 -2 -11 -7 -20 -13 -20 -23 -2 -44 -20 -39 -34 5 -11
-1 -15 -20 -15 -21 0 -26 -5 -26 -25 0 -14 -3 -24 -7 -24 -29 5 -41 -3 -36
-21 4 -16 0 -20 -22 -20 -26 0 -27 -2 -23 -45 l3 -45 -48 0 -49 0 4 -48 c3
-45 2 -48 -19 -44 -25 5 -25 6 -27 -78 l-1 -55 -45 -1 -45 0 2 -42 c1 -37 -1
-43 -23 -48 -22 -6 -24 -11 -24 -70 0 -69 0 -69 -68 -66 -22 1 -23 -2 -21 -66
2 -109 2 -112 -23 -112 l-23 0 0 -313 0 -312 23 -3 c19 -3 22 -10 23 -45 2
-97 0 -92 46 -89 40 2 43 1 43 -23 0 -18 -5 -25 -20 -25 -19 0 -22 -7 -22 -50
0 -11 0 -24 1 -29 0 -6 20 -11 44 -13 l42 -3 1 -70 c3 -107 2 -106 21 -103 12
2 19 -5 23 -22 3 -14 11 -25 18 -26 26 -2 32 -4 31 -11 -4 -22 3 -33 20 -33
13 0 21 -8 23 -23 2 -15 9 -21 21 -19 9 2 18 -2 18 -8 1 -5 2 -16 3 -22 1 -13
10 -15 68 -17 25 -1 26 -4 24 -46 l-2 -45 68 0 c61 0 68 -2 68 -20 0 -11 6
-20 13 -21 6 0 55 -2 107 -3 119 -4 110 -1 106 -35 -6 -57 -13 -55 318 -56
l306 0 1 25 c1 14 1 33 0 42 -3 21 -6 20 90 23 83 2 101 8 93 30 -5 12 11 15
87 17 l93 3 -1 43 -1 42 44 0 c43 0 49 5 45 38 -2 9 6 12 21 10 21 -3 23 1 26
44 3 41 6 47 25 46 54 -2 67 2 67 22 0 14 7 20 23 20 22 0 22 3 21 90 -1 88 0
90 23 90 18 0 23 5 23 26 0 19 4 25 15 21 18 -8 28 8 31 48 2 45 3 46 22 43
14 -3 17 7 20 64 3 60 5 67 25 70 l22 3 0 310 0 310 -25 5 c-24 5 -24 7 -22
93 1 65 -2 87 -11 86 -6 -1 -27 -1 -44 0 l-33 1 0 65 c0 62 -4 70 -32 66 -10
-1 -18 31 -14 56 6 29 -11 40 -56 38 l-37 -2 2 66 c2 61 0 66 -21 69 -14 2
-22 10 -22 23 0 10 -4 20 -10 20 -5 1 -16 2 -22 3 -7 0 -13 10 -13 21 0 13 -8
21 -22 23 -24 4 -26 8 -23 60 1 18 -2 32 -7 31 -27 -5 -45 2 -39 16 5 15 -26
39 -38 28 -3 -3 -6 6 -6 20 0 22 -5 27 -24 27 -19 0 -24 4 -21 20 3 16 -2 20
-21 20 -22 0 -24 4 -24 48 l0 49 -45 -2 c-41 -2 -45 0 -45 21 0 19 -5 24 -26
24 -19 0 -25 4 -21 14 7 17 -18 40 -33 31 -6 -4 -10 4 -10 20 0 23 -4 26 -27
25 -16 -1 -58 -2 -95 -1 -61 1 -66 3 -61 21 3 13 0 20 -8 21 -10 1 -281 4
-340 4z"/>
</g>
</svg>
